<mxfile host="app.diagrams.net" modified="2024-03-24T07:38:22.423Z" agent="Mozilla/5.0 (Windows NT 10.0; Win64; x64) AppleWebKit/537.36 (KHTML, like Gecko) Chrome/123.0.0.0 Safari/537.36" etag="4th9eRg4Btg8Uepl4d39" version="24.1.0" type="github">
  <diagram name="Page-1" id="phz_FprpEc_0Dcnx_o0i">
    <mxGraphModel dx="1290" dy="609" grid="1" gridSize="10" guides="1" tooltips="1" connect="1" arrows="1" fold="1" page="1" pageScale="1" pageWidth="827" pageHeight="1169" math="0" shadow="0">
      <root>
        <mxCell id="0" />
        <mxCell id="1" parent="0" />
        <mxCell id="AlaG7t0pZhiAt_VEpUe0-58" value="" style="group" parent="1" vertex="1" connectable="0">
          <mxGeometry x="71" y="60" width="685" height="400" as="geometry" />
        </mxCell>
        <mxCell id="AlaG7t0pZhiAt_VEpUe0-1" value="" style="endArrow=none;html=1;rounded=0;" parent="AlaG7t0pZhiAt_VEpUe0-58" edge="1">
          <mxGeometry width="50" height="50" relative="1" as="geometry">
            <mxPoint x="130" y="140" as="sourcePoint" />
            <mxPoint x="660" y="140" as="targetPoint" />
          </mxGeometry>
        </mxCell>
        <mxCell id="AlaG7t0pZhiAt_VEpUe0-3" value="" style="rounded=1;whiteSpace=wrap;html=1;" parent="AlaG7t0pZhiAt_VEpUe0-58" vertex="1">
          <mxGeometry x="600" y="200" width="80" height="90" as="geometry" />
        </mxCell>
        <mxCell id="AlaG7t0pZhiAt_VEpUe0-4" value="" style="rounded=1;whiteSpace=wrap;html=1;" parent="AlaG7t0pZhiAt_VEpUe0-58" vertex="1">
          <mxGeometry x="475" y="200" width="80" height="90" as="geometry" />
        </mxCell>
        <mxCell id="AlaG7t0pZhiAt_VEpUe0-5" value="" style="rounded=1;whiteSpace=wrap;html=1;" parent="AlaG7t0pZhiAt_VEpUe0-58" vertex="1">
          <mxGeometry x="350" y="200" width="80" height="90" as="geometry" />
        </mxCell>
        <mxCell id="AlaG7t0pZhiAt_VEpUe0-6" value="" style="rounded=1;whiteSpace=wrap;html=1;" parent="AlaG7t0pZhiAt_VEpUe0-58" vertex="1">
          <mxGeometry x="230" y="200" width="80" height="90" as="geometry" />
        </mxCell>
        <mxCell id="AlaG7t0pZhiAt_VEpUe0-7" value="" style="rounded=1;whiteSpace=wrap;html=1;" parent="AlaG7t0pZhiAt_VEpUe0-58" vertex="1">
          <mxGeometry x="110" y="200" width="80" height="90" as="geometry" />
        </mxCell>
        <mxCell id="AlaG7t0pZhiAt_VEpUe0-8" value="" style="endArrow=none;html=1;rounded=0;exitX=0.25;exitY=0;exitDx=0;exitDy=0;" parent="AlaG7t0pZhiAt_VEpUe0-58" source="AlaG7t0pZhiAt_VEpUe0-7" edge="1">
          <mxGeometry width="50" height="50" relative="1" as="geometry">
            <mxPoint x="370" y="230" as="sourcePoint" />
            <mxPoint x="130" y="140" as="targetPoint" />
          </mxGeometry>
        </mxCell>
        <mxCell id="AlaG7t0pZhiAt_VEpUe0-9" value="" style="endArrow=none;html=1;rounded=0;exitX=0.25;exitY=0;exitDx=0;exitDy=0;" parent="AlaG7t0pZhiAt_VEpUe0-58" edge="1">
          <mxGeometry width="50" height="50" relative="1" as="geometry">
            <mxPoint x="260" y="200" as="sourcePoint" />
            <mxPoint x="260" y="140" as="targetPoint" />
          </mxGeometry>
        </mxCell>
        <mxCell id="AlaG7t0pZhiAt_VEpUe0-10" value="" style="endArrow=none;html=1;rounded=0;exitX=0.25;exitY=0;exitDx=0;exitDy=0;" parent="AlaG7t0pZhiAt_VEpUe0-58" edge="1">
          <mxGeometry width="50" height="50" relative="1" as="geometry">
            <mxPoint x="384" y="200" as="sourcePoint" />
            <mxPoint x="384" y="140" as="targetPoint" />
          </mxGeometry>
        </mxCell>
        <mxCell id="AlaG7t0pZhiAt_VEpUe0-11" value="" style="endArrow=none;html=1;rounded=0;exitX=0.25;exitY=0;exitDx=0;exitDy=0;" parent="AlaG7t0pZhiAt_VEpUe0-58" edge="1">
          <mxGeometry width="50" height="50" relative="1" as="geometry">
            <mxPoint x="514.5" y="200" as="sourcePoint" />
            <mxPoint x="514.5" y="140" as="targetPoint" />
          </mxGeometry>
        </mxCell>
        <mxCell id="AlaG7t0pZhiAt_VEpUe0-12" value="" style="endArrow=none;html=1;rounded=0;exitX=0.25;exitY=0;exitDx=0;exitDy=0;" parent="AlaG7t0pZhiAt_VEpUe0-58" edge="1">
          <mxGeometry width="50" height="50" relative="1" as="geometry">
            <mxPoint x="660" y="200" as="sourcePoint" />
            <mxPoint x="660" y="140" as="targetPoint" />
          </mxGeometry>
        </mxCell>
        <mxCell id="AlaG7t0pZhiAt_VEpUe0-15" value="" style="group" parent="AlaG7t0pZhiAt_VEpUe0-58" vertex="1" connectable="0">
          <mxGeometry x="120" y="250" width="60" height="30" as="geometry" />
        </mxCell>
        <mxCell id="AlaG7t0pZhiAt_VEpUe0-13" value="" style="rounded=1;whiteSpace=wrap;html=1;" parent="AlaG7t0pZhiAt_VEpUe0-15" vertex="1">
          <mxGeometry width="60" height="30" as="geometry" />
        </mxCell>
        <mxCell id="AlaG7t0pZhiAt_VEpUe0-14" value="RM" style="text;html=1;strokeColor=none;fillColor=none;align=center;verticalAlign=middle;whiteSpace=wrap;rounded=0;" parent="AlaG7t0pZhiAt_VEpUe0-15" vertex="1">
          <mxGeometry width="60" height="30" as="geometry" />
        </mxCell>
        <mxCell id="AlaG7t0pZhiAt_VEpUe0-16" value="" style="group" parent="AlaG7t0pZhiAt_VEpUe0-58" vertex="1" connectable="0">
          <mxGeometry x="240" y="250" width="60" height="30" as="geometry" />
        </mxCell>
        <mxCell id="AlaG7t0pZhiAt_VEpUe0-17" value="" style="rounded=1;whiteSpace=wrap;html=1;" parent="AlaG7t0pZhiAt_VEpUe0-16" vertex="1">
          <mxGeometry width="60" height="30" as="geometry" />
        </mxCell>
        <mxCell id="AlaG7t0pZhiAt_VEpUe0-18" value="NM" style="text;html=1;strokeColor=none;fillColor=none;align=center;verticalAlign=middle;whiteSpace=wrap;rounded=0;" parent="AlaG7t0pZhiAt_VEpUe0-16" vertex="1">
          <mxGeometry width="60" height="30" as="geometry" />
        </mxCell>
        <mxCell id="AlaG7t0pZhiAt_VEpUe0-19" value="" style="group" parent="AlaG7t0pZhiAt_VEpUe0-58" vertex="1" connectable="0">
          <mxGeometry x="360" y="250" width="60" height="30" as="geometry" />
        </mxCell>
        <mxCell id="AlaG7t0pZhiAt_VEpUe0-20" value="" style="rounded=1;whiteSpace=wrap;html=1;" parent="AlaG7t0pZhiAt_VEpUe0-19" vertex="1">
          <mxGeometry width="60" height="30" as="geometry" />
        </mxCell>
        <mxCell id="AlaG7t0pZhiAt_VEpUe0-21" value="NM" style="text;html=1;strokeColor=none;fillColor=none;align=center;verticalAlign=middle;whiteSpace=wrap;rounded=0;" parent="AlaG7t0pZhiAt_VEpUe0-19" vertex="1">
          <mxGeometry width="60" height="30" as="geometry" />
        </mxCell>
        <mxCell id="AlaG7t0pZhiAt_VEpUe0-22" value="" style="group" parent="AlaG7t0pZhiAt_VEpUe0-58" vertex="1" connectable="0">
          <mxGeometry x="485" y="250" width="60" height="30" as="geometry" />
        </mxCell>
        <mxCell id="AlaG7t0pZhiAt_VEpUe0-23" value="" style="rounded=1;whiteSpace=wrap;html=1;" parent="AlaG7t0pZhiAt_VEpUe0-22" vertex="1">
          <mxGeometry width="60" height="30" as="geometry" />
        </mxCell>
        <mxCell id="AlaG7t0pZhiAt_VEpUe0-24" value="NM" style="text;html=1;strokeColor=none;fillColor=none;align=center;verticalAlign=middle;whiteSpace=wrap;rounded=0;" parent="AlaG7t0pZhiAt_VEpUe0-22" vertex="1">
          <mxGeometry width="60" height="30" as="geometry" />
        </mxCell>
        <mxCell id="AlaG7t0pZhiAt_VEpUe0-25" value="" style="group" parent="AlaG7t0pZhiAt_VEpUe0-58" vertex="1" connectable="0">
          <mxGeometry x="610" y="250" width="60" height="30" as="geometry" />
        </mxCell>
        <mxCell id="AlaG7t0pZhiAt_VEpUe0-26" value="" style="rounded=1;whiteSpace=wrap;html=1;" parent="AlaG7t0pZhiAt_VEpUe0-25" vertex="1">
          <mxGeometry width="60" height="30" as="geometry" />
        </mxCell>
        <mxCell id="AlaG7t0pZhiAt_VEpUe0-27" value="NM" style="text;html=1;strokeColor=none;fillColor=none;align=center;verticalAlign=middle;whiteSpace=wrap;rounded=0;" parent="AlaG7t0pZhiAt_VEpUe0-25" vertex="1">
          <mxGeometry width="60" height="30" as="geometry" />
        </mxCell>
        <mxCell id="AlaG7t0pZhiAt_VEpUe0-28" value="" style="endArrow=none;dashed=1;html=1;rounded=0;" parent="AlaG7t0pZhiAt_VEpUe0-58" edge="1">
          <mxGeometry width="50" height="50" relative="1" as="geometry">
            <mxPoint x="150" y="330" as="sourcePoint" />
            <mxPoint x="650" y="330" as="targetPoint" />
          </mxGeometry>
        </mxCell>
        <mxCell id="AlaG7t0pZhiAt_VEpUe0-29" value="" style="endArrow=none;dashed=1;html=1;rounded=0;" parent="AlaG7t0pZhiAt_VEpUe0-58" edge="1">
          <mxGeometry width="50" height="50" relative="1" as="geometry">
            <mxPoint x="150" y="320" as="sourcePoint" />
            <mxPoint x="525" y="320" as="targetPoint" />
          </mxGeometry>
        </mxCell>
        <mxCell id="AlaG7t0pZhiAt_VEpUe0-30" value="" style="endArrow=none;dashed=1;html=1;rounded=0;" parent="AlaG7t0pZhiAt_VEpUe0-58" edge="1">
          <mxGeometry width="50" height="50" relative="1" as="geometry">
            <mxPoint x="150" y="310" as="sourcePoint" />
            <mxPoint x="390" y="310" as="targetPoint" />
          </mxGeometry>
        </mxCell>
        <mxCell id="AlaG7t0pZhiAt_VEpUe0-31" value="" style="endArrow=none;dashed=1;html=1;rounded=0;" parent="AlaG7t0pZhiAt_VEpUe0-58" edge="1">
          <mxGeometry width="50" height="50" relative="1" as="geometry">
            <mxPoint x="150" y="300" as="sourcePoint" />
            <mxPoint x="270" y="300" as="targetPoint" />
          </mxGeometry>
        </mxCell>
        <mxCell id="AlaG7t0pZhiAt_VEpUe0-32" value="" style="endArrow=none;dashed=1;html=1;dashPattern=1 3;strokeWidth=2;rounded=0;entryX=0.5;entryY=1;entryDx=0;entryDy=0;" parent="AlaG7t0pZhiAt_VEpUe0-58" target="AlaG7t0pZhiAt_VEpUe0-18" edge="1">
          <mxGeometry width="50" height="50" relative="1" as="geometry">
            <mxPoint x="270" y="300" as="sourcePoint" />
            <mxPoint x="320" y="380" as="targetPoint" />
          </mxGeometry>
        </mxCell>
        <mxCell id="AlaG7t0pZhiAt_VEpUe0-33" value="" style="endArrow=none;dashed=1;html=1;dashPattern=1 3;strokeWidth=2;rounded=0;entryX=0.383;entryY=1.009;entryDx=0;entryDy=0;entryPerimeter=0;" parent="AlaG7t0pZhiAt_VEpUe0-58" target="AlaG7t0pZhiAt_VEpUe0-21" edge="1">
          <mxGeometry width="50" height="50" relative="1" as="geometry">
            <mxPoint x="383" y="310" as="sourcePoint" />
            <mxPoint x="383" y="290" as="targetPoint" />
          </mxGeometry>
        </mxCell>
        <mxCell id="AlaG7t0pZhiAt_VEpUe0-34" value="" style="endArrow=none;dashed=1;html=1;dashPattern=1 3;strokeWidth=2;rounded=0;entryX=0.567;entryY=0.981;entryDx=0;entryDy=0;entryPerimeter=0;" parent="AlaG7t0pZhiAt_VEpUe0-58" target="AlaG7t0pZhiAt_VEpUe0-24" edge="1">
          <mxGeometry width="50" height="50" relative="1" as="geometry">
            <mxPoint x="520" y="320" as="sourcePoint" />
            <mxPoint x="520" y="290" as="targetPoint" />
          </mxGeometry>
        </mxCell>
        <mxCell id="AlaG7t0pZhiAt_VEpUe0-36" value="" style="endArrow=none;dashed=1;html=1;dashPattern=1 3;strokeWidth=2;rounded=0;entryX=0.631;entryY=1.079;entryDx=0;entryDy=0;entryPerimeter=0;" parent="AlaG7t0pZhiAt_VEpUe0-58" target="AlaG7t0pZhiAt_VEpUe0-27" edge="1">
          <mxGeometry width="50" height="50" relative="1" as="geometry">
            <mxPoint x="648" y="330" as="sourcePoint" />
            <mxPoint x="420" y="180" as="targetPoint" />
          </mxGeometry>
        </mxCell>
        <mxCell id="AlaG7t0pZhiAt_VEpUe0-37" value="" style="endArrow=none;dashed=1;html=1;strokeWidth=2;rounded=0;entryX=0.5;entryY=1;entryDx=0;entryDy=0;jumpSize=10;dashPattern=1 1;startArrow=classic;startFill=1;exitX=0.5;exitY=1;exitDx=0;exitDy=0;endSize=6;startSize=2;" parent="AlaG7t0pZhiAt_VEpUe0-58" source="AlaG7t0pZhiAt_VEpUe0-7" edge="1">
          <mxGeometry width="50" height="50" relative="1" as="geometry">
            <mxPoint x="420" y="180" as="sourcePoint" />
            <mxPoint x="150" y="330" as="targetPoint" />
          </mxGeometry>
        </mxCell>
        <mxCell id="AlaG7t0pZhiAt_VEpUe0-40" value="" style="fontColor=#0066CC;verticalAlign=top;verticalLabelPosition=bottom;labelPosition=center;align=center;html=1;outlineConnect=0;fillColor=#CCCCCC;strokeColor=#6881B3;gradientColor=none;gradientDirection=north;strokeWidth=2;shape=mxgraph.networks.terminal;" parent="AlaG7t0pZhiAt_VEpUe0-58" vertex="1">
          <mxGeometry width="80" height="65" as="geometry" />
        </mxCell>
        <mxCell id="AlaG7t0pZhiAt_VEpUe0-41" value="" style="endArrow=classic;html=1;rounded=0;dashed=1;dashPattern=8 8;entryX=0.5;entryY=0;entryDx=0;entryDy=0;endFill=1;" parent="AlaG7t0pZhiAt_VEpUe0-58" source="AlaG7t0pZhiAt_VEpUe0-40" target="AlaG7t0pZhiAt_VEpUe0-14" edge="1">
          <mxGeometry relative="1" as="geometry">
            <mxPoint x="190" y="210" as="sourcePoint" />
            <mxPoint x="110" y="232" as="targetPoint" />
            <Array as="points">
              <mxPoint x="40" y="232" />
              <mxPoint x="150" y="232" />
            </Array>
          </mxGeometry>
        </mxCell>
        <mxCell id="AlaG7t0pZhiAt_VEpUe0-42" value="Client" style="text;html=1;strokeColor=none;fillColor=none;align=center;verticalAlign=middle;whiteSpace=wrap;rounded=0;" parent="AlaG7t0pZhiAt_VEpUe0-58" vertex="1">
          <mxGeometry x="80" y="17.5" width="60" height="30" as="geometry" />
        </mxCell>
        <mxCell id="AlaG7t0pZhiAt_VEpUe0-43" value="" style="endArrow=classic;html=1;rounded=0;exitX=0.75;exitY=0;exitDx=0;exitDy=0;entryX=0.106;entryY=-0.022;entryDx=0;entryDy=0;entryPerimeter=0;dashed=1;dashPattern=8 8;endFill=1;" parent="AlaG7t0pZhiAt_VEpUe0-58" source="AlaG7t0pZhiAt_VEpUe0-14" target="AlaG7t0pZhiAt_VEpUe0-27" edge="1">
          <mxGeometry relative="1" as="geometry">
            <mxPoint x="360" y="120" as="sourcePoint" />
            <mxPoint x="630" y="160" as="targetPoint" />
            <Array as="points">
              <mxPoint x="165" y="160" />
              <mxPoint x="616" y="160" />
            </Array>
          </mxGeometry>
        </mxCell>
        <mxCell id="AlaG7t0pZhiAt_VEpUe0-44" value="Start AM container" style="text;html=1;strokeColor=none;fillColor=none;align=center;verticalAlign=middle;whiteSpace=wrap;rounded=0;fontSize=10;fontStyle=2" parent="AlaG7t0pZhiAt_VEpUe0-58" vertex="1">
          <mxGeometry x="280" y="160" width="100" height="20" as="geometry" />
        </mxCell>
        <mxCell id="AlaG7t0pZhiAt_VEpUe0-45" value="" style="group" parent="AlaG7t0pZhiAt_VEpUe0-58" vertex="1" connectable="0">
          <mxGeometry x="620" y="210" width="60" height="30" as="geometry" />
        </mxCell>
        <mxCell id="AlaG7t0pZhiAt_VEpUe0-46" value="" style="rounded=1;whiteSpace=wrap;html=1;" parent="AlaG7t0pZhiAt_VEpUe0-45" vertex="1">
          <mxGeometry width="60" height="30" as="geometry" />
        </mxCell>
        <mxCell id="AlaG7t0pZhiAt_VEpUe0-47" value="AM" style="text;html=1;strokeColor=none;fillColor=none;align=center;verticalAlign=middle;whiteSpace=wrap;rounded=0;" parent="AlaG7t0pZhiAt_VEpUe0-45" vertex="1">
          <mxGeometry width="60" height="30" as="geometry" />
        </mxCell>
        <mxCell id="AlaG7t0pZhiAt_VEpUe0-48" value="Submit Application" style="text;html=1;strokeColor=none;fillColor=none;align=center;verticalAlign=middle;whiteSpace=wrap;rounded=0;spacingBottom=0;textDirection=ltr;labelPosition=center;verticalLabelPosition=middle;rotation=-90;fontStyle=2" parent="AlaG7t0pZhiAt_VEpUe0-58" vertex="1">
          <mxGeometry x="-10" y="120" width="120" height="30" as="geometry" />
        </mxCell>
        <mxCell id="AlaG7t0pZhiAt_VEpUe0-49" value="Master Node" style="text;html=1;strokeColor=none;fillColor=none;align=center;verticalAlign=middle;whiteSpace=wrap;rounded=0;fontSize=15;" parent="AlaG7t0pZhiAt_VEpUe0-58" vertex="1">
          <mxGeometry x="110" y="360" width="70" height="40" as="geometry" />
        </mxCell>
        <mxCell id="AlaG7t0pZhiAt_VEpUe0-50" value="Worker Node 1" style="text;html=1;strokeColor=none;fillColor=none;align=center;verticalAlign=middle;whiteSpace=wrap;rounded=0;fontSize=15;" parent="AlaG7t0pZhiAt_VEpUe0-58" vertex="1">
          <mxGeometry x="230" y="360" width="70" height="40" as="geometry" />
        </mxCell>
        <mxCell id="AlaG7t0pZhiAt_VEpUe0-51" value="Worker Node 2" style="text;html=1;strokeColor=none;fillColor=none;align=center;verticalAlign=middle;whiteSpace=wrap;rounded=0;fontSize=15;" parent="AlaG7t0pZhiAt_VEpUe0-58" vertex="1">
          <mxGeometry x="360" y="360" width="70" height="40" as="geometry" />
        </mxCell>
        <mxCell id="AlaG7t0pZhiAt_VEpUe0-52" value="Worker Node 3" style="text;html=1;strokeColor=none;fillColor=none;align=center;verticalAlign=middle;whiteSpace=wrap;rounded=0;fontSize=15;" parent="AlaG7t0pZhiAt_VEpUe0-58" vertex="1">
          <mxGeometry x="485" y="360" width="70" height="40" as="geometry" />
        </mxCell>
        <mxCell id="AlaG7t0pZhiAt_VEpUe0-53" value="Worker Node 4" style="text;html=1;strokeColor=none;fillColor=none;align=center;verticalAlign=middle;whiteSpace=wrap;rounded=0;fontSize=15;" parent="AlaG7t0pZhiAt_VEpUe0-58" vertex="1">
          <mxGeometry x="615" y="360" width="70" height="40" as="geometry" />
        </mxCell>
        <mxCell id="AlaG7t0pZhiAt_VEpUe0-54" value="" style="group" parent="AlaG7t0pZhiAt_VEpUe0-58" vertex="1" connectable="0">
          <mxGeometry x="360" y="210" width="60" height="30" as="geometry" />
        </mxCell>
        <mxCell id="AlaG7t0pZhiAt_VEpUe0-55" value="" style="rounded=1;whiteSpace=wrap;html=1;" parent="AlaG7t0pZhiAt_VEpUe0-54" vertex="1">
          <mxGeometry width="60" height="30" as="geometry" />
        </mxCell>
        <mxCell id="AlaG7t0pZhiAt_VEpUe0-56" value="AM" style="text;html=1;strokeColor=none;fillColor=none;align=center;verticalAlign=middle;whiteSpace=wrap;rounded=0;" parent="AlaG7t0pZhiAt_VEpUe0-54" vertex="1">
          <mxGeometry width="60" height="30" as="geometry" />
        </mxCell>
        <mxCell id="AlaG7t0pZhiAt_VEpUe0-57" value="Node status report" style="text;html=1;strokeColor=none;fillColor=none;align=center;verticalAlign=middle;whiteSpace=wrap;rounded=0;fontSize=10;spacing=2;fontStyle=2" parent="AlaG7t0pZhiAt_VEpUe0-58" vertex="1">
          <mxGeometry x="400" y="300" width="100" height="30" as="geometry" />
        </mxCell>
        <mxCell id="AlaG7t0pZhiAt_VEpUe0-121" value="" style="group" parent="1" vertex="1" connectable="0">
          <mxGeometry x="59" y="570" width="710" height="302" as="geometry" />
        </mxCell>
        <mxCell id="AlaG7t0pZhiAt_VEpUe0-60" value="" style="endArrow=none;html=1;rounded=0;" parent="AlaG7t0pZhiAt_VEpUe0-121" edge="1">
          <mxGeometry width="50" height="50" relative="1" as="geometry">
            <mxPoint x="175" y="142" as="sourcePoint" />
            <mxPoint x="690" y="142" as="targetPoint" />
          </mxGeometry>
        </mxCell>
        <mxCell id="AlaG7t0pZhiAt_VEpUe0-61" value="" style="rounded=1;whiteSpace=wrap;html=1;" parent="AlaG7t0pZhiAt_VEpUe0-121" vertex="1">
          <mxGeometry x="630" y="202" width="80" height="90" as="geometry" />
        </mxCell>
        <mxCell id="AlaG7t0pZhiAt_VEpUe0-62" value="" style="rounded=1;whiteSpace=wrap;html=1;" parent="AlaG7t0pZhiAt_VEpUe0-121" vertex="1">
          <mxGeometry x="505" y="202" width="80" height="90" as="geometry" />
        </mxCell>
        <mxCell id="AlaG7t0pZhiAt_VEpUe0-63" value="" style="rounded=1;whiteSpace=wrap;html=1;" parent="AlaG7t0pZhiAt_VEpUe0-121" vertex="1">
          <mxGeometry x="380" y="202" width="80" height="90" as="geometry" />
        </mxCell>
        <mxCell id="AlaG7t0pZhiAt_VEpUe0-64" value="" style="rounded=1;whiteSpace=wrap;html=1;" parent="AlaG7t0pZhiAt_VEpUe0-121" vertex="1">
          <mxGeometry x="260" y="202" width="80" height="90" as="geometry" />
        </mxCell>
        <mxCell id="AlaG7t0pZhiAt_VEpUe0-65" value="" style="rounded=1;whiteSpace=wrap;html=1;" parent="AlaG7t0pZhiAt_VEpUe0-121" vertex="1">
          <mxGeometry x="140" y="202" width="80" height="90" as="geometry" />
        </mxCell>
        <mxCell id="AlaG7t0pZhiAt_VEpUe0-66" value="" style="endArrow=none;html=1;rounded=0;exitX=0.5;exitY=0;exitDx=0;exitDy=0;" parent="AlaG7t0pZhiAt_VEpUe0-121" edge="1">
          <mxGeometry width="50" height="50" relative="1" as="geometry">
            <mxPoint x="175" y="202" as="sourcePoint" />
            <mxPoint x="175" y="142" as="targetPoint" />
          </mxGeometry>
        </mxCell>
        <mxCell id="AlaG7t0pZhiAt_VEpUe0-67" value="" style="endArrow=none;html=1;rounded=0;exitX=0.25;exitY=0;exitDx=0;exitDy=0;" parent="AlaG7t0pZhiAt_VEpUe0-121" edge="1">
          <mxGeometry width="50" height="50" relative="1" as="geometry">
            <mxPoint x="290" y="202" as="sourcePoint" />
            <mxPoint x="290" y="142" as="targetPoint" />
          </mxGeometry>
        </mxCell>
        <mxCell id="AlaG7t0pZhiAt_VEpUe0-68" value="" style="endArrow=none;html=1;rounded=0;exitX=0.25;exitY=0;exitDx=0;exitDy=0;" parent="AlaG7t0pZhiAt_VEpUe0-121" edge="1">
          <mxGeometry width="50" height="50" relative="1" as="geometry">
            <mxPoint x="414" y="202" as="sourcePoint" />
            <mxPoint x="414" y="142" as="targetPoint" />
          </mxGeometry>
        </mxCell>
        <mxCell id="AlaG7t0pZhiAt_VEpUe0-69" value="" style="endArrow=none;html=1;rounded=0;exitX=0.25;exitY=0;exitDx=0;exitDy=0;" parent="AlaG7t0pZhiAt_VEpUe0-121" edge="1">
          <mxGeometry width="50" height="50" relative="1" as="geometry">
            <mxPoint x="544.5" y="202" as="sourcePoint" />
            <mxPoint x="544.5" y="142" as="targetPoint" />
          </mxGeometry>
        </mxCell>
        <mxCell id="AlaG7t0pZhiAt_VEpUe0-70" value="" style="endArrow=none;html=1;rounded=0;exitX=0.25;exitY=0;exitDx=0;exitDy=0;" parent="AlaG7t0pZhiAt_VEpUe0-121" edge="1">
          <mxGeometry width="50" height="50" relative="1" as="geometry">
            <mxPoint x="690" y="202" as="sourcePoint" />
            <mxPoint x="690" y="142" as="targetPoint" />
          </mxGeometry>
        </mxCell>
        <mxCell id="AlaG7t0pZhiAt_VEpUe0-71" value="" style="group" parent="AlaG7t0pZhiAt_VEpUe0-121" vertex="1" connectable="0">
          <mxGeometry x="150" y="252" width="60" height="30" as="geometry" />
        </mxCell>
        <mxCell id="AlaG7t0pZhiAt_VEpUe0-72" value="" style="rounded=1;whiteSpace=wrap;html=1;" parent="AlaG7t0pZhiAt_VEpUe0-71" vertex="1">
          <mxGeometry width="60" height="30" as="geometry" />
        </mxCell>
        <mxCell id="AlaG7t0pZhiAt_VEpUe0-73" value="NN" style="text;html=1;strokeColor=none;fillColor=none;align=center;verticalAlign=middle;whiteSpace=wrap;rounded=0;" parent="AlaG7t0pZhiAt_VEpUe0-71" vertex="1">
          <mxGeometry width="60" height="30" as="geometry" />
        </mxCell>
        <mxCell id="AlaG7t0pZhiAt_VEpUe0-74" value="" style="group" parent="AlaG7t0pZhiAt_VEpUe0-121" vertex="1" connectable="0">
          <mxGeometry x="270" y="252" width="60" height="30" as="geometry" />
        </mxCell>
        <mxCell id="AlaG7t0pZhiAt_VEpUe0-75" value="" style="rounded=1;whiteSpace=wrap;html=1;" parent="AlaG7t0pZhiAt_VEpUe0-74" vertex="1">
          <mxGeometry width="60" height="30" as="geometry" />
        </mxCell>
        <mxCell id="AlaG7t0pZhiAt_VEpUe0-76" value="DN" style="text;html=1;strokeColor=none;fillColor=none;align=center;verticalAlign=middle;whiteSpace=wrap;rounded=0;" parent="AlaG7t0pZhiAt_VEpUe0-74" vertex="1">
          <mxGeometry width="60" height="30" as="geometry" />
        </mxCell>
        <mxCell id="AlaG7t0pZhiAt_VEpUe0-77" value="" style="group" parent="AlaG7t0pZhiAt_VEpUe0-121" vertex="1" connectable="0">
          <mxGeometry x="390" y="252" width="60" height="30" as="geometry" />
        </mxCell>
        <mxCell id="AlaG7t0pZhiAt_VEpUe0-78" value="" style="rounded=1;whiteSpace=wrap;html=1;" parent="AlaG7t0pZhiAt_VEpUe0-77" vertex="1">
          <mxGeometry width="60" height="30" as="geometry" />
        </mxCell>
        <mxCell id="AlaG7t0pZhiAt_VEpUe0-79" value="DN" style="text;html=1;strokeColor=none;fillColor=none;align=center;verticalAlign=middle;whiteSpace=wrap;rounded=0;" parent="AlaG7t0pZhiAt_VEpUe0-77" vertex="1">
          <mxGeometry width="60" height="30" as="geometry" />
        </mxCell>
        <mxCell id="AlaG7t0pZhiAt_VEpUe0-80" value="" style="group" parent="AlaG7t0pZhiAt_VEpUe0-121" vertex="1" connectable="0">
          <mxGeometry x="515" y="252" width="60" height="30" as="geometry" />
        </mxCell>
        <mxCell id="AlaG7t0pZhiAt_VEpUe0-81" value="" style="rounded=1;whiteSpace=wrap;html=1;" parent="AlaG7t0pZhiAt_VEpUe0-80" vertex="1">
          <mxGeometry width="60" height="30" as="geometry" />
        </mxCell>
        <mxCell id="AlaG7t0pZhiAt_VEpUe0-82" value="DN" style="text;html=1;strokeColor=none;fillColor=none;align=center;verticalAlign=middle;whiteSpace=wrap;rounded=0;" parent="AlaG7t0pZhiAt_VEpUe0-80" vertex="1">
          <mxGeometry width="60" height="30" as="geometry" />
        </mxCell>
        <mxCell id="AlaG7t0pZhiAt_VEpUe0-83" value="" style="group" parent="AlaG7t0pZhiAt_VEpUe0-121" vertex="1" connectable="0">
          <mxGeometry x="640" y="252" width="60" height="30" as="geometry" />
        </mxCell>
        <mxCell id="AlaG7t0pZhiAt_VEpUe0-84" value="" style="rounded=1;whiteSpace=wrap;html=1;" parent="AlaG7t0pZhiAt_VEpUe0-83" vertex="1">
          <mxGeometry width="60" height="30" as="geometry" />
        </mxCell>
        <mxCell id="AlaG7t0pZhiAt_VEpUe0-85" value="DN" style="text;html=1;strokeColor=none;fillColor=none;align=center;verticalAlign=middle;whiteSpace=wrap;rounded=0;" parent="AlaG7t0pZhiAt_VEpUe0-83" vertex="1">
          <mxGeometry width="60" height="30" as="geometry" />
        </mxCell>
        <mxCell id="AlaG7t0pZhiAt_VEpUe0-104" value="" style="fontColor=#0066CC;verticalAlign=top;verticalLabelPosition=bottom;labelPosition=center;align=center;html=1;outlineConnect=0;fillColor=#CCCCCC;strokeColor=#6881B3;gradientColor=none;gradientDirection=north;strokeWidth=2;shape=mxgraph.networks.terminal;" parent="AlaG7t0pZhiAt_VEpUe0-121" vertex="1">
          <mxGeometry width="80" height="65" as="geometry" />
        </mxCell>
        <mxCell id="AlaG7t0pZhiAt_VEpUe0-105" value="Client" style="text;html=1;strokeColor=none;fillColor=none;align=center;verticalAlign=middle;whiteSpace=wrap;rounded=0;" parent="AlaG7t0pZhiAt_VEpUe0-121" vertex="1">
          <mxGeometry x="80" y="17.5" width="60" height="30" as="geometry" />
        </mxCell>
        <mxCell id="AlaG7t0pZhiAt_VEpUe0-107" value="" style="endArrow=classic;html=1;rounded=0;dashed=1;strokeWidth=1;endFill=1;" parent="AlaG7t0pZhiAt_VEpUe0-121" source="AlaG7t0pZhiAt_VEpUe0-104" edge="1">
          <mxGeometry relative="1" as="geometry">
            <mxPoint x="115" y="242" as="sourcePoint" />
            <mxPoint x="155" y="252" as="targetPoint" />
            <Array as="points">
              <mxPoint x="40" y="142" />
              <mxPoint x="155" y="142" />
            </Array>
          </mxGeometry>
        </mxCell>
        <mxCell id="AlaG7t0pZhiAt_VEpUe0-108" value="" style="endArrow=none;html=1;rounded=0;dashed=1;" parent="AlaG7t0pZhiAt_VEpUe0-121" edge="1">
          <mxGeometry relative="1" as="geometry">
            <mxPoint x="45" y="142" as="sourcePoint" />
            <mxPoint x="545" y="302" as="targetPoint" />
            <Array as="points">
              <mxPoint x="45" y="302" />
            </Array>
          </mxGeometry>
        </mxCell>
        <mxCell id="AlaG7t0pZhiAt_VEpUe0-109" value="" style="endArrow=classic;html=1;rounded=0;dashed=1;endFill=1;endSize=1;" parent="AlaG7t0pZhiAt_VEpUe0-121" edge="1">
          <mxGeometry relative="1" as="geometry">
            <mxPoint x="285" y="302" as="sourcePoint" />
            <mxPoint x="285" y="292" as="targetPoint" />
          </mxGeometry>
        </mxCell>
        <mxCell id="AlaG7t0pZhiAt_VEpUe0-110" value="" style="endArrow=classic;html=1;rounded=0;dashed=1;endFill=1;endSize=1;" parent="AlaG7t0pZhiAt_VEpUe0-121" edge="1">
          <mxGeometry relative="1" as="geometry">
            <mxPoint x="405" y="302" as="sourcePoint" />
            <mxPoint x="405" y="292" as="targetPoint" />
          </mxGeometry>
        </mxCell>
        <mxCell id="AlaG7t0pZhiAt_VEpUe0-111" value="" style="endArrow=classic;html=1;rounded=0;dashed=1;endFill=1;endSize=1;" parent="AlaG7t0pZhiAt_VEpUe0-121" edge="1">
          <mxGeometry relative="1" as="geometry">
            <mxPoint x="544.92" y="302" as="sourcePoint" />
            <mxPoint x="544.92" y="292" as="targetPoint" />
          </mxGeometry>
        </mxCell>
        <mxCell id="AlaG7t0pZhiAt_VEpUe0-112" value="" style="image;aspect=fixed;html=1;points=[];align=center;fontSize=12;image=img/lib/azure2/general/File.svg;" parent="AlaG7t0pZhiAt_VEpUe0-121" vertex="1">
          <mxGeometry y="82" width="30" height="36.97" as="geometry" />
        </mxCell>
        <mxCell id="AlaG7t0pZhiAt_VEpUe0-113" value="" style="image;aspect=fixed;html=1;points=[];align=center;fontSize=12;image=img/lib/azure2/general/File.svg;" parent="AlaG7t0pZhiAt_VEpUe0-121" vertex="1">
          <mxGeometry x="305" y="212" width="20" height="24.65" as="geometry" />
        </mxCell>
        <mxCell id="AlaG7t0pZhiAt_VEpUe0-114" value="" style="image;aspect=fixed;html=1;points=[];align=center;fontSize=12;image=img/lib/azure2/general/File.svg;" parent="AlaG7t0pZhiAt_VEpUe0-121" vertex="1">
          <mxGeometry x="270" y="212" width="20" height="24.65" as="geometry" />
        </mxCell>
        <mxCell id="AlaG7t0pZhiAt_VEpUe0-117" value="" style="image;aspect=fixed;html=1;points=[];align=center;fontSize=12;image=img/lib/azure2/general/File.svg;" parent="AlaG7t0pZhiAt_VEpUe0-121" vertex="1">
          <mxGeometry x="392.5" y="212" width="20" height="24.65" as="geometry" />
        </mxCell>
        <mxCell id="AlaG7t0pZhiAt_VEpUe0-118" value="" style="image;aspect=fixed;html=1;points=[];align=center;fontSize=12;image=img/lib/azure2/general/File.svg;" parent="AlaG7t0pZhiAt_VEpUe0-121" vertex="1">
          <mxGeometry x="427.5" y="212" width="20" height="24.65" as="geometry" />
        </mxCell>
        <mxCell id="AlaG7t0pZhiAt_VEpUe0-119" value="" style="image;aspect=fixed;html=1;points=[];align=center;fontSize=12;image=img/lib/azure2/general/File.svg;" parent="AlaG7t0pZhiAt_VEpUe0-121" vertex="1">
          <mxGeometry x="517.5" y="212" width="20" height="24.65" as="geometry" />
        </mxCell>
        <mxCell id="AlaG7t0pZhiAt_VEpUe0-120" value="" style="image;aspect=fixed;html=1;points=[];align=center;fontSize=12;image=img/lib/azure2/general/File.svg;" parent="AlaG7t0pZhiAt_VEpUe0-121" vertex="1">
          <mxGeometry x="552.5" y="212" width="20" height="24.65" as="geometry" />
        </mxCell>
        <mxCell id="AlaG7t0pZhiAt_VEpUe0-185" value="redirection" style="text;html=1;strokeColor=none;fillColor=none;align=center;verticalAlign=middle;whiteSpace=wrap;rounded=0;rotation=-90;" parent="AlaG7t0pZhiAt_VEpUe0-121" vertex="1">
          <mxGeometry x="30" y="212" width="60" height="72" as="geometry" />
        </mxCell>
        <mxCell id="AlaG7t0pZhiAt_VEpUe0-176" value="Master Node" style="text;html=1;strokeColor=none;fillColor=none;align=center;verticalAlign=middle;whiteSpace=wrap;rounded=0;fontSize=15;" parent="1" vertex="1">
          <mxGeometry x="205" y="890" width="70" height="40" as="geometry" />
        </mxCell>
        <mxCell id="AlaG7t0pZhiAt_VEpUe0-177" value="Worker Node 1" style="text;html=1;strokeColor=none;fillColor=none;align=center;verticalAlign=middle;whiteSpace=wrap;rounded=0;fontSize=15;" parent="1" vertex="1">
          <mxGeometry x="331" y="890" width="70" height="40" as="geometry" />
        </mxCell>
        <mxCell id="AlaG7t0pZhiAt_VEpUe0-182" value="Worker Node 2" style="text;html=1;strokeColor=none;fillColor=none;align=center;verticalAlign=middle;whiteSpace=wrap;rounded=0;fontSize=15;" parent="1" vertex="1">
          <mxGeometry x="431" y="890" width="70" height="40" as="geometry" />
        </mxCell>
        <mxCell id="AlaG7t0pZhiAt_VEpUe0-183" value="Worker Node 3" style="text;html=1;strokeColor=none;fillColor=none;align=center;verticalAlign=middle;whiteSpace=wrap;rounded=0;fontSize=15;" parent="1" vertex="1">
          <mxGeometry x="556" y="890" width="70" height="40" as="geometry" />
        </mxCell>
        <mxCell id="AlaG7t0pZhiAt_VEpUe0-184" value="Worker Node 4" style="text;html=1;strokeColor=none;fillColor=none;align=center;verticalAlign=middle;whiteSpace=wrap;rounded=0;fontSize=15;" parent="1" vertex="1">
          <mxGeometry x="686" y="890" width="70" height="40" as="geometry" />
        </mxCell>
      </root>
    </mxGraphModel>
  </diagram>
</mxfile>
